<svg xmlns="http://www.w3.org/2000/svg" xmlns:xlink="http://www.w3.org/1999/xlink" width="1364" height="440" version="1.1">
<style type="text/css">
.l0{
 fill: #000000;
  stroke: #000000;
  stroke-linecap:round;
  stroke-linejoin:round;
  stroke-width: 1.37307;
}
.l1{
 fill: #00ccee;
  stroke: #00ccee;
  stroke-linecap:round;
  stroke-linejoin:round;
  stroke-width: 1.37307;
}
.l2{
  fill: none;
  stroke: #3f3f3f;
  stroke-linecap:round;
  stroke-linejoin:round;
  stroke-width: 1.37307;
}
.l3{
 fill: #cccccc; fill-opacity: 0.5;
  stroke: #cccccc;
  stroke-linecap:round;
  stroke-linejoin:round;
  stroke-width: 1.37307;
}
.l4{
 fill: #88dd00;
  stroke: #88dd00;
  stroke-linecap:round;
  stroke-linejoin:round;
  stroke-width: 1.37307;
}
.l5{
 fill: #bb2200;
  stroke: #bb2200;
  stroke-linecap:round;
  stroke-linejoin:round;
  stroke-width: 1.37307;
}
.l6{
 fill: #00ccee; fill-opacity: 0.5;
  stroke: #00ccee;
  stroke-linecap:round;
  stroke-linejoin:round;
  stroke-width: 1.37307;
}
.l7{
 fill: #ff0000; fill-opacity: 0.5;
  stroke: #ff0000;
  stroke-linecap:round;
  stroke-linejoin:round;
  stroke-width: 1.37307;
}
.l8{
 fill: #ffff00; fill-opacity: 0.5;
  stroke: #ffff00;
  stroke-linecap:round;
  stroke-linejoin:round;
  stroke-width: 1.37307;
}
.l9{
 fill: #ffffff; fill-opacity: 0.5;
  stroke: #ffffff;
  stroke-linecap:round;
  stroke-linejoin:round;
  stroke-width: 1.37307;
}
.l10{
 fill: #ff00ff;
  stroke: #ff00ff;
  stroke-linecap:round;
  stroke-linejoin:round;
  stroke-width: 1.37307;
}
.l11{
 fill: #00ff00; fill-opacity: 0.5;
  stroke: #00ff00;
  stroke-linecap:round;
  stroke-linejoin:round;
  stroke-width: 1.37307;
}
.l12{
 fill: #0044dd; fill-opacity: 0.5;
  stroke: #0044dd;
  stroke-linecap:round;
  stroke-linejoin:round;
  stroke-width: 1.37307;
}
.l13{
 fill: #aaaa00; fill-opacity: 0.5;
  stroke: #aaaa00;
  stroke-linecap:round;
  stroke-linejoin:round;
  stroke-width: 1.37307;
}
.l14{
  fill: none;
  stroke: #aaccaa;
  stroke-linecap:round;
  stroke-linejoin:round;
  stroke-width: 1.37307;
}
.l15{
 fill: #ff7777; fill-opacity: 0.5;
  stroke: #ff7777;
  stroke-linecap:round;
  stroke-linejoin:round;
  stroke-width: 1.37307;
}
.l16{
 fill: #bfff81; fill-opacity: 0.5;
  stroke: #bfff81;
  stroke-linecap:round;
  stroke-linejoin:round;
  stroke-width: 1.37307;
}
.l17{
  fill: none;
  stroke: #00ffcc;
  stroke-linecap:round;
  stroke-linejoin:round;
  stroke-width: 1.37307;
}
.l18{
 fill: #ce0097; fill-opacity: 0.5;
  stroke: #ce0097;
  stroke-linecap:round;
  stroke-linejoin:round;
  stroke-width: 1.37307;
}
.l19{
  fill: none;
  stroke: #d2d46b;
  stroke-linecap:round;
  stroke-linejoin:round;
  stroke-width: 1.37307;
}
.l20{
  fill: none;
  stroke: #ef6158;
  stroke-linecap:round;
  stroke-linejoin:round;
  stroke-width: 1.37307;
}
.l21{
  fill: none;
  stroke: #fdb200;
  stroke-linecap:round;
  stroke-linejoin:round;
  stroke-width: 1.37307;
}
text {font-family: Sans-Serif;}
</style>
<rect class="l0" x="0" y="0" width="1364" height="440"/>
<text fill="#00ccee"  xml:space="preserve" font-size="13.2221" transform="translate(151.652, 196.565)" >GND</text>
<text fill="#00ccee"  xml:space="preserve" font-size="13.2221" transform="translate(126.225, 69.429)" >VDD</text>
<text fill="#00ccee"  xml:space="preserve" font-size="13.2221" transform="translate(151.652, 336.414)" >GND</text>
<text fill="#00ccee"  xml:space="preserve" font-size="21.8165" transform="translate(278.572, 225.823)" >Vin</text>
<text fill="#00ccee"  xml:space="preserve" font-size="21.8165" transform="translate(151.652, 246.886)" >Vin</text>
<text fill="#00ccee"  xml:space="preserve" font-size="21.8165" transform="translate(533.06, 221.459)" >Vout</text>
<text fill="#00ccee"  xml:space="preserve" font-size="13.2221" transform="translate(469.492, 387.269)" >GND</text>
<text fill="#00ccee"  xml:space="preserve" font-size="13.2221" transform="translate(444.065, 69.429)" >VDD</text>
<text fill="#cccccc"  xml:space="preserve" font-size="13.2221" transform="translate(167.544, 128.229)" >Vdd</text>
<text fill="#cccccc"  xml:space="preserve" font-size="13.2221" transform="translate(167.544, 160.013)" >5</text>
<text fill="#cccccc"  xml:space="preserve" font-size="13.2221" transform="translate(420.886, 253.776)" >M1</text>
<text fill="#ff0000"  xml:space="preserve" font-size="9.9166" transform="translate(463.135, 311.164)" >S</text>
<text fill="#ff0000"  xml:space="preserve" font-size="9.9166" transform="translate(463.135, 255.292)" >D</text>
<text fill="#ff0000"  xml:space="preserve" font-size="9.9166" transform="translate(414.816, 276.202)" >G</text>
<text fill="#cccccc"  xml:space="preserve" font-size="13.2221" transform="translate(472.67, 265.627)" >nfet_01v8</text>
<text fill="#aaaa00"  xml:space="preserve" font-size="13.2221" transform="translate(474.26, 309.398)" >1 x 99.5 / 0.15</text>
<text fill="#aaaa00"  xml:space="preserve" font-size="13.2221" transform="translate(474.26, 293.506)" >nf=1</text>
<text fill="#cccccc"  xml:space="preserve" font-size="13.2221" transform="translate(167.544, 268.079)" >Vin</text>
<text fill="#cccccc"  xml:space="preserve" font-size="13.2221" transform="translate(167.544, 299.863)" >0</text>
<text fill="#cccccc"  xml:space="preserve" font-size="19.8332" transform="translate(974.857, 285.206)" >SPICE</text>
<text fill="#cccccc"  xml:space="preserve" font-size="19.8332" style="font-family:Monospace;" transform="translate(987.571, 316.99)" >.dc Vin 0 5 0.01</text>
<text fill="#cccccc"  xml:space="preserve" font-size="19.8332" style="font-family:Monospace;" transform="translate(987.571, 339.739)" >.save all</text>
<text fill="#cccccc"  xml:space="preserve" font-size="19.8332" transform="translate(1000.28, 37.291)" >Corner: tt</text>
<text fill="#cccccc"  xml:space="preserve" font-size="13.2221" transform="translate(420.886, 113.927)" >M3</text>
<text fill="#ff0000"  xml:space="preserve" font-size="9.9166" transform="translate(463.135, 171.315)" >D</text>
<text fill="#ff0000"  xml:space="preserve" font-size="9.9166" transform="translate(463.135, 115.443)" >S</text>
<text fill="#ff0000"  xml:space="preserve" font-size="9.9166" transform="translate(459.957, 136.352)" >B</text>
<text fill="#ff0000"  xml:space="preserve" font-size="9.9166" transform="translate(414.816, 136.352)" >G</text>
<text fill="#cccccc"  xml:space="preserve" font-size="13.2221" transform="translate(472.67, 125.777)" >pfet_01v8</text>
<text fill="#aaaa00"  xml:space="preserve" font-size="13.2221" transform="translate(474.26, 169.548)" >1 x 0.42 / 99.5</text>
<text fill="#aaaa00"  xml:space="preserve" font-size="13.2221" transform="translate(474.26, 153.657)" >nf=1</text>
<text fill="#cccccc"  xml:space="preserve" font-size="13.2221" transform="translate(573.45, 253.776)" >M2</text>
<text fill="#ff0000"  xml:space="preserve" font-size="9.9166" transform="translate(615.698, 311.164)" >S</text>
<text fill="#ff0000"  xml:space="preserve" font-size="9.9166" transform="translate(615.698, 255.292)" >D</text>
<text fill="#ff0000"  xml:space="preserve" font-size="9.9166" transform="translate(567.379, 276.202)" >G</text>
<text fill="#cccccc"  xml:space="preserve" font-size="13.2221" transform="translate(625.234, 265.627)" >nfet_01v8</text>
<text fill="#aaaa00"  xml:space="preserve" font-size="13.2221" transform="translate(626.823, 309.398)" >1 x 99.5 / 0.15</text>
<text fill="#aaaa00"  xml:space="preserve" font-size="13.2221" transform="translate(626.823, 293.506)" >nf=1</text>
<text fill="#cccccc"  xml:space="preserve" font-size="13.2221" transform="translate(738.726, 253.776)" >M4</text>
<text fill="#ff0000"  xml:space="preserve" font-size="9.9166" transform="translate(780.975, 311.164)" >S</text>
<text fill="#ff0000"  xml:space="preserve" font-size="9.9166" transform="translate(780.975, 255.292)" >D</text>
<text fill="#ff0000"  xml:space="preserve" font-size="9.9166" transform="translate(732.656, 276.202)" >G</text>
<text fill="#cccccc"  xml:space="preserve" font-size="13.2221" transform="translate(790.51, 265.627)" >nfet_01v8</text>
<text fill="#aaaa00"  xml:space="preserve" font-size="13.2221" transform="translate(792.099, 309.398)" >1 x 99.5 / 0.15</text>
<text fill="#aaaa00"  xml:space="preserve" font-size="13.2221" transform="translate(792.099, 293.506)" >nf=1</text>
<path class="l4" d="M145.295 111.456L151.652 111.456"/>
<path class="l4" d="M148.474 108.278L148.474 114.634"/>
<path class="l4" d="M142.117 101.921L142.117 178.202"/>
<circle class="l4" cx="142.117" cy="140.062" r="19.0704" style="fill:none;"/>
<path class="l4" d="M444.065 251.306L444.065 308.517"/>
<path class="l4" d="M409.102 279.911L437.708 279.911"/>
<path class="l4" d="M459.957 241.77L459.957 257.662"/>
<path class="l4" d="M459.957 302.16L459.957 318.052"/>
<path class="l4" d="M437.708 260.841L437.708 298.982"/>
<path class="l4" d="M444.065 257.662L459.957 257.662"/>
<path class="l4" d="M444.065 302.16L453.6 302.16"/>
<path class="l4" d="M453.6 298.982L459.957 302.16L453.6 305.338L453.6 298.982"/>
<path class="l4" d="M142.117 178.202L142.117 194.094"/>
<path class="l4" d="M135.76 194.094L148.474 194.094"/>
<path class="l4" d="M142.117 200.451L148.474 194.094"/>
<path class="l4" d="M135.76 194.094L142.117 200.451"/>
<path class="l4" d="M142.117 76.4936L142.117 101.921"/>
<path class="l4" d="M129.403 76.4936L154.831 76.4936"/>
<path class="l4" d="M145.295 251.306L151.652 251.306"/>
<path class="l4" d="M148.474 248.127L148.474 254.484"/>
<path class="l4" d="M142.117 241.77L142.117 318.052"/>
<circle class="l4" cx="142.117" cy="279.911" r="19.0704" style="fill:none;"/>
<path class="l4" d="M142.117 318.052L142.117 333.944"/>
<path class="l4" d="M135.76 333.944L148.474 333.944"/>
<path class="l4" d="M142.117 340.301L148.474 333.944"/>
<path class="l4" d="M135.76 333.944L142.117 340.301"/>
<path class="l4" d="M968.501 292.625L1057.5 292.625"/>
<path class="l4" d="M968.501 292.625L968.501 318.052"/>
<path class="l4" d="M1019.35 89.2072L1070.21 89.2072"/>
<path class="l4" d="M1019.35 101.921L1044.78 101.921"/>
<path class="l4" d="M1019.35 114.634L1070.21 114.634"/>
<path class="l4" d="M1019.35 127.348L1057.5 127.348"/>
<path class="l4" d="M1019.35 140.062L1057.5 140.062"/>
<path class="l4" d="M1019.35 152.775L1108.35 152.775"/>
<path class="l4" d="M1019.35 165.489L1044.78 165.489"/>
<path class="l4" d="M1019.35 76.4936L1082.92 76.4936"/>
<path class="l4" d="M1019.35 63.7801L1044.78 63.7801"/>
<path class="l4" d="M1121.06 63.7801L1133.78 63.7801"/>
<path class="l4" d="M1133.78 63.7801L1133.78 190.916"/>
<path class="l4" d="M1019.35 190.916L1133.78 190.916"/>
<path class="l4" d="M1019.35 178.202L1019.35 190.916"/>
<path class="l4" d="M1121.06 51.0665L1121.06 178.202"/>
<path class="l4" d="M1006.64 178.202L1121.06 178.202"/>
<path class="l4" d="M1006.64 51.0665L1006.64 178.202"/>
<path class="l4" d="M1006.64 51.0665L1121.06 51.0665"/>
<path class="l4" d="M459.957 368.906L459.957 384.798"/>
<path class="l4" d="M453.6 384.798L466.314 384.798"/>
<path class="l4" d="M459.957 391.155L466.314 384.798"/>
<path class="l4" d="M453.6 384.798L459.957 391.155"/>
<path class="l4" d="M459.957 76.4936L459.957 101.921"/>
<path class="l4" d="M447.243 76.4936L472.67 76.4936"/>
<path class="l4" d="M444.065 111.456L444.065 168.667"/>
<path class="l4" d="M459.957 101.921L459.957 117.813"/>
<path class="l4" d="M459.957 162.31L459.957 178.202"/>
<path class="l4" d="M437.708 120.991L437.708 159.132"/>
<path class="l4" d="M444.065 162.31L459.957 162.31"/>
<path class="l4" d="M450.422 117.813L459.957 117.813"/>
<path class="l4" d="M409.102 140.062L424.994 140.062"/>
<path class="l4" d="M450.422 114.634L444.065 117.813L450.422 120.991L450.422 114.634"/>
<circle class="l4" cx="431.351" cy="140.062" r="6.3568" style="fill:none;"/>
<path class="l4" d="M596.628 251.306L596.628 308.517"/>
<path class="l4" d="M561.666 279.911L590.271 279.911"/>
<path class="l4" d="M612.52 241.77L612.52 257.662"/>
<path class="l4" d="M612.52 302.16L612.52 318.052"/>
<path class="l4" d="M590.271 260.841L590.271 298.982"/>
<path class="l4" d="M596.628 257.662L612.52 257.662"/>
<path class="l4" d="M596.628 302.16L606.163 302.16"/>
<path class="l4" d="M606.163 298.982L612.52 302.16L606.163 305.338L606.163 298.982"/>
<path class="l4" d="M761.905 251.306L761.905 308.517"/>
<path class="l4" d="M726.942 279.911L755.548 279.911"/>
<path class="l4" d="M777.797 241.77L777.797 257.662"/>
<path class="l4" d="M777.797 302.16L777.797 318.052"/>
<path class="l4" d="M755.548 260.841L755.548 298.982"/>
<path class="l4" d="M761.905 257.662L777.797 257.662"/>
<path class="l4" d="M761.905 302.16L771.44 302.16"/>
<path class="l4" d="M771.44 298.982L777.797 302.16L771.44 305.338L771.44 298.982"/>
<path class="l5" d="M138.939 98.7424L145.295 98.7424L145.295 105.099L138.939 105.099L138.939 98.7424z"/>
<path class="l5" d="M138.939 175.024L145.295 175.024L145.295 181.381L138.939 181.381L138.939 175.024z"/>
<path class="l5" d="M456.778 238.592L463.135 238.592L463.135 244.949L456.778 244.949L456.778 238.592z"/>
<path class="l5" d="M405.924 276.733L412.281 276.733L412.281 283.09L405.924 283.09L405.924 276.733z"/>
<path class="l5" d="M456.778 314.873L463.135 314.873L463.135 321.23L456.778 321.23L456.778 314.873z"/>
<path class="l5" d="M138.939 175.024L145.295 175.024L145.295 181.381L138.939 181.381L138.939 175.024z"/>
<path class="l5" d="M138.939 98.7424L145.295 98.7424L145.295 105.099L138.939 105.099L138.939 98.7424z"/>
<path class="l5" d="M138.939 238.592L145.295 238.592L145.295 244.949L138.939 244.949L138.939 238.592z"/>
<path class="l5" d="M138.939 314.873L145.295 314.873L145.295 321.23L138.939 321.23L138.939 314.873z"/>
<path class="l5" d="M138.939 314.873L145.295 314.873L145.295 321.23L138.939 321.23L138.939 314.873z"/>
<path class="l5" d="M318.518 214.754L321.697 214.754L321.697 217.932L318.518 217.932L318.518 214.754z"/>
<path class="l5" d="M140.528 240.181L143.706 240.181L143.706 243.36L140.528 243.36L140.528 240.181z"/>
<path class="l5" d="M521.936 214.754L525.114 214.754L525.114 217.932L521.936 217.932L521.936 214.754z"/>
<path class="l5" d="M456.778 365.728L463.135 365.728L463.135 372.085L456.778 372.085L456.778 365.728z"/>
<path class="l5" d="M456.778 98.7424L463.135 98.7424L463.135 105.099L456.778 105.099L456.778 98.7424z"/>
<path class="l5" d="M453.6 136.883L459.957 140.062L453.6 143.24L453.6 136.883"/>
<path class="l5" d="M456.778 175.024L463.135 175.024L463.135 181.381L456.778 181.381L456.778 175.024z"/>
<path class="l5" d="M405.924 136.883L412.281 136.883L412.281 143.24L405.924 143.24L405.924 136.883z"/>
<path class="l5" d="M456.778 98.7424L463.135 98.7424L463.135 105.099L456.778 105.099L456.778 98.7424z"/>
<path class="l5" d="M459.858 139.962L460.056 139.962L460.056 140.161L459.858 140.161L459.858 139.962z"/>
<path class="l5" d="M609.342 238.592L615.698 238.592L615.698 244.949L609.342 244.949L609.342 238.592z"/>
<path class="l5" d="M558.487 276.733L564.844 276.733L564.844 283.09L558.487 283.09L558.487 276.733z"/>
<path class="l5" d="M609.342 314.873L615.698 314.873L615.698 321.23L609.342 321.23L609.342 314.873z"/>
<path class="l5" d="M774.618 238.592L780.975 238.592L780.975 244.949L774.618 244.949L774.618 238.592z"/>
<path class="l5" d="M723.764 276.733L730.121 276.733L730.121 283.09L723.764 283.09L723.764 276.733z"/>
<path class="l5" d="M774.618 314.873L780.975 314.873L780.975 321.23L774.618 321.23L774.618 314.873z"/>
<path class="l1" d="M459.957 178.202L459.957 241.77"/>
<path class="l1" d="M370.962 140.062L409.102 140.062"/>
<path class="l1" d="M370.962 140.062L370.962 279.911"/>
<path class="l1" d="M370.962 279.911L409.102 279.911"/>
<path class="l1" d="M320.107 216.343L370.962 216.343"/>
<path class="l1" d="M459.957 216.343L523.525 216.343"/>
<path class="l1" d="M459.957 318.052L459.957 368.906"/>
<path class="l1" d="M459.957 241.77L777.797 241.77"/>
<path class="l1" d="M459.957 318.052L777.797 318.052"/>
<path class="l1" d="M561.666 279.911L561.666 343.479"/>
<path class="l1" d="M370.962 343.479L561.666 343.479"/>
<path class="l1" d="M370.962 279.911L370.962 343.479"/>
<path class="l1" d="M561.666 343.479L726.942 343.479"/>
<path class="l1" d="M726.942 279.911L726.942 343.479"/>
<circle class="l1" cx="370.962" cy="216.343" r="5.08544"/>
<circle class="l1" cx="370.962" cy="279.911" r="5.08544"/>
<circle class="l1" cx="370.962" cy="279.911" r="5.08544"/>
<circle class="l1" cx="561.666" cy="343.479" r="5.08544"/>
<circle class="l1" cx="370.962" cy="279.911" r="5.08544"/>
<circle class="l1" cx="459.957" cy="216.343" r="5.08544"/>
<circle class="l1" cx="561.666" cy="343.479" r="5.08544"/>
<circle class="l1" cx="561.666" cy="343.479" r="5.08544"/>
</svg>
